<svg width="64" height="60" viewBox="0 0 64 60" fill="none" xmlns="http://www.w3.org/2000/svg">
<g clip-path="url(#clip0_222_52)">
<path d="M27.2941 5.49805C25.1333 5.49805 23.3813 7.24946 23.3813 9.41026C23.3813 11.5716 25.1333 13.323 27.2941 13.323C29.4549 13.323 31.2068 11.5716 31.2068 9.41026C31.2042 7.2505 29.4539 5.50012 27.2941 5.49805ZM27.2941 11.7331C26.0111 11.7331 24.9713 10.6933 24.9713 9.41026C24.9713 8.12776 26.0116 7.08747 27.2941 7.08798C28.5771 7.08798 29.6169 8.12776 29.6169 9.41026C29.6153 10.6928 28.5761 11.7315 27.2941 11.7331Z" fill="#F91616"/>
<path d="M63.3123 52.5415L51.3308 31.7191C51.3267 31.7108 51.3215 31.703 51.3169 31.6953C50.6011 30.5375 49.4066 29.7591 48.0583 29.5722V17.2704H53.0134C53.4528 17.2704 53.8084 16.9143 53.8084 16.4755V12.5006C53.8084 12.1844 53.621 11.8982 53.3307 11.7719L27.6112 0.587473C27.4088 0.499488 27.179 0.499488 26.9767 0.587473L1.25715 11.7714C0.967315 11.8971 0.779442 12.1833 0.779442 12.5001V16.4749C0.779442 16.9138 1.13552 17.2699 1.57441 17.2699H6.52951V40.6205H3.91274C3.47333 40.6205 3.11777 40.9766 3.11777 41.4155V45.6088H0.794968C0.35608 45.6088 0 45.9648 0 46.4037V51.392C0 51.8308 0.35608 52.1869 0.794968 52.1869H31.7123L31.5084 52.5415C30.6306 53.9606 30.5902 55.7441 31.4028 57.2021C32.2154 58.66 33.7536 59.5637 35.4227 59.5637H59.3985C61.0671 59.5637 62.6053 58.66 63.4179 57.2026C64.2305 55.7446 64.1901 53.9611 63.3123 52.542V52.5415ZM2.36938 15.6805V13.0218L27.2939 2.18362L52.2185 13.0218V15.6805H2.36938ZM46.4684 17.2704V29.623C45.2376 29.8766 44.1653 30.6265 43.5043 31.6953C43.4992 31.703 43.4945 31.7108 43.4898 31.7191L43.3822 31.9064V17.2704H46.4684ZM41.7923 17.2704V34.6697L38.3676 40.6205H36.3041V17.2704H41.7923ZM34.7141 17.2704V40.6205H31.6279V17.2704H34.7141ZM30.038 17.2704V40.6205H24.5498V17.2704H30.038ZM22.9599 17.2704V40.6205H19.8737V17.2704H22.9599ZM18.2838 17.2704V40.6205H12.7956V17.2704H18.2838ZM11.2056 17.2704V40.6205H8.11944V17.2704H11.2056ZM4.7077 42.2105H37.4531L35.4977 45.6088H4.7077V42.2105ZM1.58994 50.597V47.1987H34.5827L32.6273 50.597H1.58994ZM62.0313 56.4231C61.506 57.3858 60.4942 57.981 59.3985 57.9727H35.4227C34.3286 57.9732 33.3209 57.3801 32.7893 56.4237C32.2583 55.4672 32.2873 54.298 32.8654 53.369C32.8706 53.3613 32.8753 53.3535 32.8794 53.3457L36.5887 46.9001C36.6384 46.8369 36.6788 46.7665 36.7078 46.6915L39.4798 41.8741C39.5083 41.8342 39.5326 41.7913 39.5533 41.7468L44.8598 32.5249C45.411 31.6482 46.3737 31.1161 47.4093 31.1161C48.4449 31.1161 49.4081 31.6482 49.9593 32.5249L61.9397 53.3457C61.9444 53.354 61.9491 53.3618 61.9537 53.3695C62.5401 54.2955 62.5701 55.4688 62.0313 56.4231Z" fill="#3C3C3C"/>
<path d="M47.4102 38.1328C46.9713 38.1328 46.6152 38.4889 46.6152 38.9278V49.2091C46.6152 49.6485 46.9713 50.004 47.4102 50.004C47.8496 50.004 48.2052 49.6485 48.2052 49.2091V38.9278C48.2052 38.4889 47.8496 38.1328 47.4102 38.1328Z" fill="#F91616"/>
<path d="M47.4102 51.8164C46.9713 51.8164 46.6152 52.1725 46.6152 52.6114V53.588C46.6152 54.0274 46.9713 54.383 47.4102 54.383C47.8496 54.383 48.2052 54.0274 48.2052 53.588V52.6109C48.2052 52.172 47.8491 51.8164 47.4102 51.8164Z" fill="#F91616"/>
</g>
<defs>
<clipPath id="clip0_222_52">
<rect width="64" height="60" fill="white"/>
</clipPath>
</defs>
</svg>
