<svg width="66" height="64" viewBox="0 0 66 64" fill="none" xmlns="http://www.w3.org/2000/svg">
<path d="M25.4157 5.77344H5.82679C5.447 5.77344 5.13965 6.08105 5.13965 6.46058C5.13965 6.84011 5.447 7.14772 5.82679 7.14772H25.4157C25.7955 7.14772 26.1028 6.84011 26.1028 6.46058C26.1028 6.08105 25.7955 5.77344 25.4157 5.77344Z" fill="#3C3C3C"/>
<path d="M39.4488 5.77344H38.7174C38.3376 5.77344 38.0303 6.08105 38.0303 6.46058C38.0303 6.84011 38.3376 7.14772 38.7174 7.14772H39.4488C39.8286 7.14772 40.1359 6.84011 40.1359 6.46058C40.1359 6.08105 39.8286 5.77344 39.4488 5.77344Z" fill="#3C3C3C"/>
<path d="M43.8345 5.77344H43.1032C42.7234 5.77344 42.416 6.08105 42.416 6.46058C42.416 6.84011 42.7234 7.14772 43.1032 7.14772H43.8345C44.2143 7.14772 44.5217 6.84011 44.5217 6.46058C44.5217 6.08105 44.2143 5.77344 43.8345 5.77344Z" fill="#3C3C3C"/>
<path d="M48.2201 5.77344H47.4894C47.1096 5.77344 46.8022 6.08105 46.8022 6.46058C46.8022 6.84011 47.1096 7.14772 47.4894 7.14772H48.2201C48.5999 7.14772 48.9073 6.84011 48.9073 6.46058C48.9073 6.08105 48.5999 5.77344 48.2201 5.77344Z" fill="#3C3C3C"/>
<path d="M11.0574 31.5628H11.4096V32.9186C11.4096 34.2996 12.533 35.4232 13.914 35.4232H14.0287V50.5762H13.914C12.533 50.5762 11.4096 51.6997 11.4096 53.0808V54.4372H11.3204C10.9406 54.4372 10.6332 54.7448 10.6332 55.1243C10.6332 55.5039 10.9406 55.8115 11.3204 55.8115H42.7215C43.1012 55.8115 43.4086 55.5039 43.4086 55.1243C43.4086 54.7448 43.1012 54.4372 42.7215 54.4372H42.6322V53.0804C42.6322 51.6994 41.5089 50.576 40.1279 50.576H40.0131V35.4233H40.1279C41.5089 35.4233 42.6322 34.2997 42.6322 32.9187V31.5628H42.9899C43.3697 31.5628 43.677 31.2552 43.677 30.8756C43.677 30.4961 43.3697 30.1885 42.9899 30.1885H42.1902L30.8676 21.0939C28.6398 19.3053 25.406 19.3039 23.1795 21.0939L11.8569 30.1885H11.0573C10.6775 30.1885 10.3701 30.4961 10.3701 30.8756C10.3701 31.2552 10.6776 31.5628 11.0574 31.5628ZM40.128 51.9506C40.7514 51.9506 41.258 52.4575 41.258 53.0806V54.4375H12.7839V53.081C12.7839 52.4576 13.2906 51.9507 13.914 51.9507C16.2596 51.9506 40.3331 51.9506 40.128 51.9506ZM15.403 50.5763V35.4233H18.5139V50.5763H15.403ZM19.8882 50.5763V35.4233H24.0915V50.5763H19.8882ZM25.4658 50.5763V35.4233H28.576V50.5763H25.4658ZM29.9503 50.5763V35.4233H34.1536V50.5763H29.9503ZM35.5281 50.5763V35.4233H38.639V50.5763H35.5281ZM24.0399 22.1657C25.7685 20.7766 28.2775 20.7766 30.0074 22.1657L39.9944 30.1876H14.0529L24.0399 22.1657ZM12.7839 31.5628H41.2579V32.9186C41.2579 33.5419 40.7512 34.0489 40.1279 34.0489C37.7822 34.0489 13.7087 34.0489 13.9138 34.0489C13.2905 34.0489 12.7838 33.5419 12.7838 32.9186L12.7839 31.5628Z" fill="#7C4FE0"/>
<path d="M4.78917 64H49.2607C51.8979 64 54.0432 61.8548 54.0432 59.2176V30.4821C57.9993 30.0659 61.0923 26.712 61.0923 22.6478C61.0923 18.5835 57.9991 15.2297 54.0432 14.8134C54.0432 14.7943 54.0432 14.7809 54.0432 14.7657C54.0432 14.7618 54.0432 14.758 54.0432 14.7546C54.0432 14.7521 54.0432 14.7499 54.0432 14.7465C54.0432 14.7419 54.0432 14.737 54.0432 14.7335C54.0432 14.705 54.0432 14.6875 54.0432 14.6744C54.0433 14.1705 54.0438 12.0858 54.0459 4.78452C54.0459 2.14629 51.8992 0 49.2614 0H4.78516C2.14732 0 0.000646783 2.14629 0.000646783 4.78452C0.000646783 11.6054 0 52.9709 0 59.2176C0 61.8548 2.14874 64 4.78917 64ZM59.7182 22.6478C59.7182 26.2344 56.7999 29.1525 53.2132 29.1525C49.6265 29.1525 46.7089 26.2344 46.7089 22.6478C46.7089 19.0611 49.6265 16.1431 53.2132 16.1431C56.7999 16.1431 59.7182 19.0611 59.7182 22.6478ZM1.37493 4.78452C1.37493 2.90432 2.90483 1.37429 4.78516 1.37429H49.2614C51.1416 1.37429 52.6716 2.90419 52.6716 4.78452V11.5472H1.37493V4.78452ZM1.37429 12.9248H52.6689V14.7965C48.5786 15.0781 45.3345 18.4869 45.3345 22.6478C45.3345 26.8087 48.5786 30.2176 52.6689 30.4991V59.2174C52.6689 61.0967 51.1403 62.6256 49.2607 62.6256H4.78917C2.90626 62.6256 1.37429 61.0966 1.37429 59.2174V12.9248Z" fill="#7C4FE0"/>
<path d="M62.4414 22.6481C62.4414 23.0276 62.7488 23.3352 63.1286 23.3352H65.2792C65.659 23.3352 65.9664 23.0276 65.9664 22.6481C65.9664 22.2685 65.659 21.9609 65.2792 21.9609H63.1286C62.7488 21.9609 62.4414 22.2687 62.4414 22.6481Z" fill="#7C4FE0"/>
<path d="M62.7008 20.8278C62.9692 21.0963 63.404 21.0963 63.6724 20.8278L64.4461 20.0538C64.7145 19.7854 64.7145 19.3502 64.4461 19.0822C64.1777 18.8138 63.7429 18.8138 63.4745 19.0822L62.7008 19.8562C62.4324 20.1245 62.4324 20.5597 62.7008 20.8278Z" fill="#7C4FE0"/>
<path d="M63.474 26.2126C63.7424 26.481 64.1772 26.481 64.4456 26.2126C64.714 25.9446 64.714 25.5094 64.4456 25.241L63.6719 24.4669C63.4035 24.1985 62.9687 24.1985 62.7003 24.4669C62.4319 24.735 62.4319 25.1701 62.7003 25.4385L63.474 26.2126Z" fill="#7C4FE0"/>
<path d="M51.6917 24.792C51.9602 25.0604 52.3949 25.0604 52.6633 24.792L55.9797 21.4756C56.2481 21.2072 56.2481 20.7725 55.9797 20.504C55.7112 20.2356 55.2765 20.2356 55.0081 20.504L52.1776 23.3345L51.418 22.5749C51.1496 22.3065 50.7148 22.3065 50.4464 22.5749C50.178 22.8433 50.178 23.2781 50.4464 23.5465L51.6917 24.792Z" fill="#3C3C3C"/>
</svg>
