<svg width="32" height="32" viewBox="0 0 32 32" fill="none" xmlns="http://www.w3.org/2000/svg">
<path d="M14.5455 4.36364V10.1818C14.5455 11.3391 14.0857 12.449 13.2674 13.2674C12.449 14.0857 11.3391 14.5455 10.1818 14.5455H4.36364C3.20633 14.5455 2.09642 14.0857 1.27808 13.2674C0.459739 12.449 0 11.3391 0 10.1818V4.36364C0 3.20633 0.459739 2.09642 1.27808 1.27808C2.09642 0.459739 3.20633 0 4.36364 0H10.1818C11.3391 0 12.449 0.459739 13.2674 1.27808C14.0857 2.09642 14.5455 3.20633 14.5455 4.36364ZM27.6364 0H21.8182C20.6609 0 19.551 0.459739 18.7326 1.27808C17.9143 2.09642 17.4545 3.20633 17.4545 4.36364V10.1818C17.4545 11.3391 17.9143 12.449 18.7326 13.2674C19.551 14.0857 20.6609 14.5455 21.8182 14.5455H27.6364C28.7937 14.5455 29.9036 14.0857 30.7219 13.2674C31.5403 12.449 32 11.3391 32 10.1818V4.36364C32 3.20633 31.5403 2.09642 30.7219 1.27808C29.9036 0.459739 28.7937 0 27.6364 0ZM10.1818 17.4545H4.36364C3.20633 17.4545 2.09642 17.9143 1.27808 18.7326C0.459739 19.551 0 20.6609 0 21.8182V27.6364C0 28.7937 0.459739 29.9036 1.27808 30.7219C2.09642 31.5403 3.20633 32 4.36364 32H10.1818C11.3391 32 12.449 31.5403 13.2674 30.7219C14.0857 29.9036 14.5455 28.7937 14.5455 27.6364V21.8182C14.5455 20.6609 14.0857 19.551 13.2674 18.7326C12.449 17.9143 11.3391 17.4545 10.1818 17.4545ZM27.6364 17.4545H21.8182C20.6609 17.4545 19.551 17.9143 18.7326 18.7326C17.9143 19.551 17.4545 20.6609 17.4545 21.8182V27.6364C17.4545 28.7937 17.9143 29.9036 18.7326 30.7219C19.551 31.5403 20.6609 32 21.8182 32H27.6364C28.7937 32 29.9036 31.5403 30.7219 30.7219C31.5403 29.9036 32 28.7937 32 27.6364V21.8182C32 20.6609 31.5403 19.551 30.7219 18.7326C29.9036 17.9143 28.7937 17.4545 27.6364 17.4545Z" fill="white"/>
</svg>
