<svg width="53" height="53" viewBox="0 0 53 53" fill="none" xmlns="http://www.w3.org/2000/svg">
<g clip-path="url(#clip0_95_784)">
<path d="M47.8587 8.57843H5.14072C3.34682 8.57843 1.89258 10.0327 1.89258 11.8266V41.1734C1.89258 42.9673 3.34682 44.4216 5.14072 44.4216H47.8587C49.6526 44.4216 51.1068 42.9673 51.1068 41.1734V11.8266C51.1068 10.0327 49.6526 8.57843 47.8587 8.57843Z" stroke="#0D4887" stroke-width="2" stroke-linecap="round" stroke-linejoin="round"/>
<path d="M35.4316 22.2577H42.9532" stroke="#0D4887" stroke-width="2" stroke-linecap="round" stroke-linejoin="round"/>
<path d="M35.4316 29.7122H42.9532" stroke="#0D4887" stroke-width="2" stroke-linecap="round" stroke-linejoin="round"/>
<path d="M13.2773 23.5005C13.2773 26.9311 16.0584 29.7121 19.4889 29.7121C20.3562 29.7121 21.1819 29.5344 21.9317 29.2134C24.1479 28.2645 25.7005 26.0638 25.7005 23.5005C25.7005 20.07 22.9195 17.2889 19.4889 17.2889C16.0584 17.2889 13.2773 20.07 13.2773 23.5005Z" stroke="#0D4887" stroke-width="2" stroke-linecap="round" stroke-linejoin="round"/>
<path d="M10.0459 35.8631C11.0329 33.9858 12.4201 32.4342 14.0741 31.3576C15.7281 30.2809 17.5934 29.7155 19.4905 29.7155C21.3876 29.7155 23.2528 30.2809 24.9068 31.3576C26.5609 32.4342 27.9481 33.9858 28.9351 35.8631" stroke="#0D4887" stroke-width="2" stroke-linecap="round" stroke-linejoin="round"/>
</g>
<defs>
<clipPath id="clip0_95_784">
<rect width="53" height="53" fill="white"/>
</clipPath>
</defs>
</svg>
