<svg width="82" height="82" viewBox="0 0 82 82" fill="none" xmlns="http://www.w3.org/2000/svg">
<path fill-rule="evenodd" clip-rule="evenodd" d="M11.218 24.4343L14.7832 27.9995C14.9486 28.1652 15.145 28.2967 15.3613 28.3863C15.5775 28.476 15.8094 28.5222 16.0435 28.5222C16.2776 28.5222 16.5094 28.476 16.7257 28.3863C16.9419 28.2967 17.1384 28.1652 17.3038 27.9995L24.436 20.8691C24.7607 20.5329 24.9404 20.0826 24.9363 19.6152C24.9323 19.1478 24.7448 18.7007 24.4143 18.3702C24.0838 18.0397 23.6367 17.8522 23.1693 17.8481C22.7019 17.8441 22.2516 18.0238 21.9154 18.3485L16.0435 24.2186L13.7386 21.9137C13.4024 21.589 12.9521 21.4093 12.4847 21.4134C12.0173 21.4174 11.5702 21.6049 11.2397 21.9354C10.9092 22.2659 10.7217 22.713 10.7176 23.1804C10.7136 23.6478 10.8932 24.0981 11.218 24.4343ZM30.3044 21.3914H41C41.4728 21.3914 41.9262 21.2036 42.2605 20.8693C42.5948 20.535 42.7826 20.0816 42.7826 19.6088C42.7826 19.136 42.5948 18.6826 42.2605 18.3483C41.9262 18.014 41.4728 17.8262 41 17.8262H30.3044C29.8316 17.8262 29.3782 18.014 29.0439 18.3483C28.7096 18.6826 28.5217 19.136 28.5217 19.6088C28.5217 20.0816 28.7096 20.535 29.0439 20.8693C29.3782 21.2036 29.8316 21.3914 30.3044 21.3914ZM30.3044 28.5218H55.2609C55.7337 28.5218 56.1871 28.334 56.5214 27.9997C56.8557 27.6654 57.0435 27.212 57.0435 26.7392C57.0435 26.2664 56.8557 25.813 56.5214 25.4787C56.1871 25.1444 55.7337 24.9566 55.2609 24.9566H30.3044C29.8316 24.9566 29.3782 25.1444 29.0439 25.4787C28.7096 25.813 28.5217 26.2664 28.5217 26.7392C28.5217 27.212 28.7096 27.6654 29.0439 27.9997C29.3782 28.334 29.8316 28.5218 30.3044 28.5218ZM11.218 42.2604L14.7832 45.8256C14.9486 45.9913 15.145 46.1227 15.3613 46.2124C15.5775 46.3021 15.8094 46.3483 16.0435 46.3483C16.2776 46.3483 16.5094 46.3021 16.7257 46.2124C16.9419 46.1227 17.1384 45.9913 17.3038 45.8256L24.436 38.6952C24.7607 38.359 24.9404 37.9087 24.9363 37.4413C24.9323 36.9739 24.7448 36.5268 24.4143 36.1963C24.0838 35.8658 23.6367 35.6783 23.1693 35.6742C22.7019 35.6702 22.2516 35.8498 21.9154 36.1746L16.0435 42.0447L13.7386 39.7398C13.4024 39.4151 12.9521 39.2354 12.4847 39.2394C12.0173 39.2435 11.5702 39.431 11.2397 39.7615C10.9092 40.092 10.7217 40.5391 10.7176 41.0065C10.7136 41.4739 10.8932 41.9242 11.218 42.2604ZM11.218 60.0865L14.7832 63.6517C14.9486 63.8174 15.145 63.9488 15.3613 64.0385C15.5775 64.1282 15.8094 64.1744 16.0435 64.1744C16.2776 64.1744 16.5094 64.1282 16.7257 64.0385C16.9419 63.9488 17.1384 63.8174 17.3038 63.6517L24.436 56.5213C24.7607 56.1851 24.9404 55.7348 24.9363 55.2674C24.9323 54.8 24.7448 54.3529 24.4143 54.0224C24.0838 53.6919 23.6367 53.5044 23.1693 53.5003C22.7019 53.4963 22.2516 53.6759 21.9154 54.0006L16.0435 59.8708L13.7386 57.5659C13.4024 57.2412 12.9521 57.0615 12.4847 57.0655C12.0173 57.0696 11.5702 57.2571 11.2397 57.5876C10.9092 57.9181 10.7217 58.3652 10.7176 58.8326C10.7136 59.3 10.8932 59.7503 11.218 60.0865ZM30.3044 39.2175H55.2609C55.7337 39.2175 56.1871 39.0297 56.5214 38.6954C56.8557 38.3611 57.0435 37.9076 57.0435 37.4349C57.0435 36.9621 56.8557 36.5087 56.5214 36.1744C56.1871 35.8401 55.7337 35.6523 55.2609 35.6523H30.3044C29.8316 35.6523 29.3782 35.8401 29.0439 36.1744C28.7096 36.5087 28.5217 36.9621 28.5217 37.4349C28.5217 37.9076 28.7096 38.3611 29.0439 38.6954C29.3782 39.0297 29.8316 39.2175 30.3044 39.2175ZM30.3044 46.3479H44.567C45.0398 46.3479 45.4932 46.1601 45.8275 45.8258C46.1618 45.4915 46.3496 45.0381 46.3496 44.5653C46.3496 44.0925 46.1618 43.6391 45.8275 43.3048C45.4932 42.9705 45.0398 42.7827 44.567 42.7827H30.3044C29.8316 42.7827 29.3782 42.9705 29.0439 43.3048C28.7096 43.6391 28.5217 44.0925 28.5217 44.5653C28.5217 45.0381 28.7096 45.4915 29.0439 45.8258C29.3782 46.1601 29.8316 46.3479 30.3044 46.3479ZM30.3044 57.0436H37.4366C37.9093 57.0436 38.3628 56.8558 38.6971 56.5215C39.0314 56.1871 39.2192 55.7337 39.2192 55.261C39.2192 54.7882 39.0314 54.3348 38.6971 54.0005C38.3628 53.6662 37.9093 53.4783 37.4366 53.4783H30.3044C29.8316 53.4783 29.3782 53.6662 29.0439 54.0005C28.7096 54.3348 28.5217 54.7882 28.5217 55.261C28.5217 55.7337 28.7096 56.1871 29.0439 56.5215C29.3782 56.8558 29.8316 57.0436 30.3044 57.0436ZM30.3044 64.174H37.4366C37.9093 64.174 38.3628 63.9862 38.6971 63.6519C39.0314 63.3176 39.2192 62.8642 39.2192 62.3914C39.2192 61.9186 39.0314 61.4652 38.6971 61.1309C38.3628 60.7966 37.9093 60.6088 37.4366 60.6088H30.3044C29.8316 60.6088 29.3782 60.7966 29.0439 61.1309C28.7096 61.4652 28.5217 61.9186 28.5217 62.3914C28.5217 62.8642 28.7096 63.3176 29.0439 63.6519C29.3782 63.9862 29.8316 64.174 30.3044 64.174Z" fill="#3C3C3C"/>
<path d="M58.4892 68.748L53.448 63.7068C53.1232 63.3706 52.9436 62.9203 52.9476 62.4529C52.9517 61.9855 53.1392 61.5384 53.4697 61.2079C53.8002 60.8774 54.2473 60.6899 54.7147 60.6858C55.1821 60.6818 55.6324 60.8614 55.9686 61.1862L59.7495 64.9671L68.5716 56.1449C68.9078 55.8202 69.3581 55.6405 69.8255 55.6446C70.2929 55.6487 70.74 55.8361 71.0705 56.1667C71.401 56.4972 71.5885 56.9443 71.5926 57.4117C71.5966 57.879 71.4169 58.3293 71.0922 58.6655L61.0098 68.748C60.6755 69.0822 60.2222 69.2699 59.7495 69.2699C59.2768 69.2699 58.8235 69.0822 58.4892 68.748Z" fill="#8338EC"/>
<path fill-rule="evenodd" clip-rule="evenodd" d="M62.3931 82H8.91304C6.54916 82 4.28209 81.061 2.61057 79.3894C0.93905 77.7179 0 75.4508 0 73.087V8.91304C0 6.54916 0.93905 4.28209 2.61057 2.61057C4.28209 0.93905 6.54916 0 8.91304 0H45.1784C47.5422 0 49.8096 0.939435 51.4817 2.60974L65.1294 16.2592C66.8 17.9308 67.7387 20.1973 67.7391 22.5607V43.5224C75.9659 45.8505 82.0018 53.4212 82.0018 62.3913C82.0018 73.2135 73.2153 82 62.3931 82ZM64.1739 42.8628V22.5607C64.1739 22.165 64.1293 21.7728 64.0438 21.3913H55.2626C52.8988 21.3913 50.6317 20.4523 48.9602 18.7807C47.2887 17.1092 46.3496 14.8421 46.3496 12.4783V3.69535C45.9653 3.60808 45.5725 3.56443 45.1784 3.56522H8.91304C7.49471 3.56522 6.13447 4.12865 5.13156 5.13156C4.12865 6.13447 3.56522 7.49471 3.56522 8.91304V73.087C3.56522 74.5053 4.12865 75.8655 5.13156 76.8684C6.13447 77.8714 7.49471 78.4348 8.91304 78.4348H51.1234C48.5466 76.6274 46.4433 74.2257 44.9917 71.4329C43.5401 68.6402 42.783 65.5388 42.7844 62.3913C42.7844 51.5691 51.5709 42.7826 62.3931 42.7826C62.9938 42.7826 63.5874 42.8093 64.1739 42.8628ZM62.3931 46.3478C71.2473 46.3478 78.4366 53.5371 78.4366 62.3913C78.4366 71.2455 71.2473 78.4348 62.3931 78.4348C53.5389 78.4348 46.3496 71.2455 46.3496 62.3913C46.3496 53.5371 53.5389 46.3478 62.3931 46.3478ZM49.9148 6.08583V12.4783C49.9148 13.8966 50.4783 15.2568 51.4812 16.2597C52.4841 17.2627 53.8443 17.8261 55.2626 17.8261H61.6533L49.9148 6.08583Z" fill="#3C3C3C"/>
</svg>
