<svg width="32" height="32" viewBox="0 0 32 32" fill="none" xmlns="http://www.w3.org/2000/svg">
<path d="M10 2.66675C8.52724 2.66675 7.33337 3.86066 7.33337 5.33341V26.6667C7.33337 28.1395 8.52724 29.3334 10 29.3334H18.2667C16.9644 27.7184 16.2667 25.7165 16.2667 23.6667C16.2667 18.6081 20.3748 14.5001 25.4334 14.5001C25.5404 14.5001 25.6471 14.5019 25.7534 14.5056V10.6667L18.6667 2.66675H10ZM18.6667 5.90167L22.8872 10.6667H18.6667V5.90167ZM12.6667 9.33341H16.1334C16.7224 9.33341 17.2 9.81097 17.2 10.4001C17.2 10.9892 16.7224 11.4667 16.1334 11.4667H12.6667C12.0776 11.4667 11.6 10.9892 11.6 10.4001C11.6 9.81097 12.0776 9.33341 12.6667 9.33341ZM12.6667 14.6667H20.6667C21.2558 14.6667 21.7334 15.1443 21.7334 15.7334C21.7334 16.3225 21.2558 16.8001 20.6667 16.8001H12.6667C12.0776 16.8001 11.6 16.3225 11.6 15.7334C11.6 15.1443 12.0776 14.6667 12.6667 14.6667ZM12.6667 20.0001H15.4667C16.0558 20.0001 16.5334 20.4777 16.5334 21.0667C16.5334 21.6558 16.0558 22.1334 15.4667 22.1334H12.6667C12.0776 22.1334 11.6 21.6558 11.6 21.0667C11.6 20.4777 12.0776 20.0001 12.6667 20.0001Z" fill="white"/>
<path d="M24.9334 16.6667C21.3509 16.6667 18.4 19.6177 18.4 23.2001C18.4 26.7826 21.3509 29.7334 24.9334 29.7334C28.5158 29.7334 31.4667 26.7826 31.4667 23.2001C31.4667 19.6177 28.5158 16.6667 24.9334 16.6667ZM27.7334 24.2667H24.9334C24.3443 24.2667 23.8667 23.7892 23.8667 23.2001V20.4001C23.8667 19.811 24.3443 19.3334 24.9334 19.3334C25.5225 19.3334 26 19.811 26 20.4001V22.1334H27.7334C28.3225 22.1334 28.8 22.611 28.8 23.2001C28.8 23.7892 28.3225 24.2667 27.7334 24.2667Z" fill="white"/>
</svg>
