<svg width="32" height="32" viewBox="0 0 32 32" fill="none" xmlns="http://www.w3.org/2000/svg">
<path d="M16 0C12.8355 0 9.74207 0.938383 7.11088 2.69649C4.4797 4.45459 2.42894 6.95345 1.21793 9.87706C0.0069327 12.8007 -0.309921 16.0177 0.307443 19.1214C0.924806 22.2251 2.44866 25.0761 4.6863 27.3137C6.92394 29.5513 9.77486 31.0752 12.8786 31.6926C15.9823 32.3099 19.1993 31.9931 22.1229 30.7821C25.0466 29.5711 27.5454 27.5203 29.3035 24.8891C31.0616 22.2579 32 19.1645 32 16C31.9949 11.7581 30.3076 7.69138 27.3081 4.6919C24.3086 1.69242 20.2419 0.00508114 16 0ZM14.9333 7.46667C14.9333 7.18377 15.0457 6.91246 15.2458 6.71242C15.4458 6.51238 15.7171 6.4 16 6.4C16.2829 6.4 16.5542 6.51238 16.7543 6.71242C16.9543 6.91246 17.0667 7.18377 17.0667 7.46667V14.9333C17.0667 15.2162 16.9543 15.4875 16.7543 15.6876C16.5542 15.8876 16.2829 16 16 16C15.7171 16 15.4458 15.8876 15.2458 15.6876C15.0457 15.4875 14.9333 15.2162 14.9333 14.9333V7.46667ZM16 25.6C13.4551 25.596 11.0156 24.5834 9.21614 22.7839C7.41665 20.9844 6.40396 18.5449 6.40001 16C6.39534 14.5604 6.71739 13.1386 7.34189 11.8415C7.9664 10.5445 8.87708 9.40607 10.0053 8.512C10.1128 8.41061 10.24 8.33263 10.3792 8.28301C10.5183 8.23339 10.6662 8.2132 10.8135 8.22372C10.9609 8.23425 11.1044 8.27526 11.2351 8.34415C11.3657 8.41305 11.4806 8.50833 11.5725 8.62395C11.6644 8.73958 11.7313 8.87304 11.769 9.01586C11.8066 9.15869 11.8142 9.30778 11.7912 9.45369C11.7682 9.59959 11.7152 9.73914 11.6354 9.86347C11.5557 9.98781 11.451 10.0942 11.328 10.176C10.1218 11.1436 9.24567 12.4618 8.82076 13.9487C8.39584 15.4355 8.44305 17.0176 8.95586 18.4765C9.46868 19.9354 10.4218 21.199 11.6836 22.093C12.9454 22.9869 14.4536 23.4671 16 23.4671C17.5464 23.4671 19.0546 22.9869 20.3164 22.093C21.5782 21.199 22.5313 19.9354 23.0441 18.4765C23.557 17.0176 23.6042 15.4355 23.1793 13.9487C22.7543 12.4618 21.8783 11.1436 20.672 10.176C20.4777 9.99257 20.3593 9.74287 20.3402 9.47632C20.3212 9.20977 20.4029 8.94578 20.5692 8.73659C20.7355 8.5274 20.9742 8.38824 21.2382 8.34665C21.5022 8.30506 21.7721 8.36407 21.9947 8.512C23.1229 9.40607 24.0336 10.5445 24.6581 11.8415C25.2826 13.1386 25.6047 14.5604 25.6 16C25.5961 18.5449 24.5834 20.9844 22.7839 22.7839C20.9844 24.5834 18.5449 25.596 16 25.6Z" fill="white"/>
</svg>
