<svg width="32" height="33" viewBox="0 0 32 33" fill="none" xmlns="http://www.w3.org/2000/svg">
<path d="M32 16.0405C32.0009 20.0025 30.5212 23.8218 27.8514 26.7491C27.24 25.0153 26.2575 23.4359 24.9724 22.1212C23.6874 20.8066 22.1308 19.7883 20.4114 19.1376C21.6697 18.2089 22.6029 16.9066 23.0778 15.4165C23.5527 13.9263 23.5452 12.3243 23.0563 10.8387C22.5674 9.35308 21.6221 8.05965 20.3551 7.14274C19.088 6.22583 17.5639 5.7322 15.9999 5.7322C14.436 5.7322 12.9119 6.22583 11.6448 7.14274C10.3778 8.05965 9.43251 9.35308 8.94363 10.8387C8.45475 12.3243 8.44722 13.9263 8.92214 15.4165C9.39705 16.9066 10.3302 18.2089 11.5885 19.1376C9.86913 19.7883 8.31253 20.8066 7.02747 22.1212C5.74241 23.4359 4.75988 25.0153 4.14852 26.7491C2.40183 24.8232 1.15077 22.5008 0.503599 19.9827C-0.14357 17.4645 -0.167343 14.8267 0.434337 12.2973C1.03602 9.76792 2.24502 7.42327 3.95672 5.46628C5.66841 3.50929 7.83123 1.9989 10.258 1.06584C12.6847 0.132783 15.3023 -0.194839 17.8842 0.11133C20.466 0.4175 22.9344 1.34824 25.0756 2.82299C27.2168 4.29774 28.9664 6.27208 30.1729 8.57513C31.3794 10.8782 32.0065 13.4406 32 16.0405ZM21.1428 13.1834C21.1428 12.1662 20.8412 11.1719 20.2761 10.3261C19.711 9.4804 18.9078 8.82122 17.968 8.43197C17.0283 8.04272 15.9942 7.94088 14.9966 8.13932C13.999 8.33775 13.0826 8.82757 12.3634 9.54681C11.6442 10.266 11.1543 11.1824 10.9559 12.18C10.7575 13.1776 10.8593 14.2117 11.2486 15.1514C11.6378 16.0912 12.297 16.8944 13.1427 17.4595C13.9885 18.0246 14.9828 18.3262 15.9999 18.3262C17.363 18.3232 18.6693 17.7804 19.6332 16.8166C20.597 15.8527 21.1398 14.5464 21.1428 13.1834ZM15.9999 20.6119C13.6881 20.6129 11.4441 21.3927 9.6298 22.8255C7.81552 24.2583 6.5368 26.2605 5.99995 28.5091C8.83155 30.7949 12.3608 32.0417 15.9999 32.0417C19.6391 32.0417 23.1684 30.7949 26 28.5091C25.4631 26.2605 24.1844 24.2583 22.3701 22.8255C20.5558 21.3927 18.3118 20.6129 15.9999 20.6119Z" fill="white"/>
</svg>
