<svg width="34" height="34" viewBox="0 0 34 34" fill="none" xmlns="http://www.w3.org/2000/svg">
<path d="M31.1748 24.1368V28.3868C31.1764 28.7813 31.0956 29.1719 30.9376 29.5334C30.7795 29.8949 30.5477 30.2194 30.2569 30.4861C29.9662 30.7528 29.623 30.9559 29.2492 31.0823C28.8755 31.2087 28.4794 31.2556 28.0865 31.2201C23.7272 30.7465 19.5397 29.2568 15.8607 26.871C12.4378 24.6959 9.53572 21.7939 7.36067 18.371C4.96647 14.6752 3.47651 10.4674 3.0115 6.08847C2.9761 5.69671 3.02265 5.30188 3.14821 4.9291C3.27376 4.55633 3.47556 4.21378 3.74075 3.92327C4.00594 3.63275 4.32872 3.40064 4.68854 3.24171C5.04835 3.08278 5.43731 3.00051 5.83067 3.00014H10.0807C10.7682 2.99337 11.4347 3.23683 11.956 3.68514C12.4773 4.13345 12.8178 4.75602 12.914 5.4368C13.0934 6.7969 13.4261 8.13233 13.9057 9.41764C14.0963 9.92469 14.1375 10.4758 14.0245 11.0055C13.9115 11.5353 13.6491 12.0216 13.2682 12.4068L11.469 14.206C13.4857 17.7527 16.4223 20.6893 19.969 22.706L21.7682 20.9068C22.1533 20.5259 22.6396 20.2634 23.1694 20.1504C23.6992 20.0374 24.2503 20.0787 24.7573 20.2693C26.0426 20.7489 27.3781 21.0816 28.7382 21.261C29.4263 21.358 30.0548 21.7047 30.5041 22.2349C30.9534 22.7652 31.1921 23.442 31.1748 24.1368Z" stroke="white" stroke-width="2" stroke-linecap="round" stroke-linejoin="round"/>
</svg>
