<svg width="30" height="32" viewBox="0 0 30 32" fill="none" xmlns="http://www.w3.org/2000/svg">
<path d="M27.1063 4.14756C25.0796 3.93179 23.085 3.48081 21.1626 2.80374C19.3985 2.18031 17.7064 1.36948 16.1153 0.385152C15.7002 0.133218 15.2239 0 14.7382 0C14.2526 0 13.7763 0.133218 13.3612 0.385152L13.3596 0.386664C11.7688 1.3702 10.0773 2.18051 8.31388 2.80374C6.39248 3.48053 4.39886 3.93151 2.37323 4.14756C1.72254 4.21383 1.1196 4.51921 0.681161 5.00456C0.242727 5.48991 3.87743e-06 6.12069 0 6.77475V14.6276C0.00110153 17.5254 0.776637 20.3702 2.24633 22.8676C3.71603 25.365 5.82648 27.4243 8.35923 28.8322L13.4534 31.6635C13.8457 31.8841 14.2882 32 14.7382 32C15.1883 32 15.6308 31.8841 16.0231 31.6635L21.1173 28.8322C23.65 27.4243 25.7605 25.365 27.2301 22.8676C28.6998 20.3702 29.4754 17.5254 29.4765 14.6276V6.77626C29.4773 6.12215 29.2353 5.49102 28.7975 5.0051C28.3596 4.51918 27.7569 4.21458 27.1063 4.14756ZM20.753 13.2203L15.0844 19.2667C14.8151 19.554 14.4443 19.7247 14.0509 19.7425C13.6576 19.7603 13.2728 19.6237 12.9787 19.362L9.57759 16.3387C9.4217 16.2091 9.29347 16.0495 9.20053 15.8694C9.10759 15.6892 9.05184 15.4922 9.03658 15.29C9.02133 15.0879 9.0469 14.8848 9.11176 14.6927C9.17661 14.5006 9.27944 14.3236 9.41412 14.1721C9.5488 14.0205 9.71258 13.8977 9.89571 13.8107C10.0788 13.7238 10.2776 13.6746 10.4801 13.6661C10.6827 13.6575 10.8849 13.6898 11.0747 13.761C11.2645 13.8321 11.438 13.9408 11.585 14.0804L13.8872 16.1256L18.549 11.1524C18.6905 11.0019 18.8612 10.8819 19.0507 10.7998C19.2402 10.7176 19.4445 10.6751 19.651 10.6747C19.9459 10.6746 20.2344 10.7607 20.481 10.9224C20.7275 11.0842 20.9214 11.3145 21.0387 11.5851C21.156 11.8557 21.1916 12.1546 21.1411 12.4452C21.0906 12.7357 20.9547 13.0051 20.753 13.2203Z" fill="white"/>
</svg>
