<svg width="32" height="32" viewBox="0 0 32 32" fill="none" xmlns="http://www.w3.org/2000/svg">
<path d="M32 13.3333V18.6667C32 20.1376 30.8043 21.3333 29.3333 21.3333H28.608C27.5872 27.3771 22.3307 32 16 32C15.7171 32 15.4458 31.8876 15.2458 31.6876C15.0457 31.4875 14.9333 31.2162 14.9333 30.9333C14.9333 30.6504 15.0457 30.3791 15.2458 30.1791C15.4458 29.979 15.7171 29.8667 16 29.8667C21.8816 29.8667 26.6667 25.0816 26.6667 19.2V12.8C26.6667 6.9184 21.8816 2.13333 16 2.13333C10.1184 2.13333 5.33333 6.9184 5.33333 12.8V20.2667C5.33333 20.5496 5.22095 20.8209 5.02091 21.0209C4.82088 21.221 4.54956 21.3333 4.26667 21.3333H2.66667C1.9596 21.3328 1.28165 21.0516 0.781673 20.5517C0.281698 20.0517 0.000564979 19.3737 0 18.6667V13.3333C0 11.8624 1.19573 10.6667 2.66667 10.6667H3.392C4.41387 4.62293 9.6704 0 16 0C22.3296 0 27.5872 4.62293 28.608 10.6667H29.3333C30.8043 10.6667 32 11.8624 32 13.3333ZM16 4.26667C11.2949 4.26667 7.46667 8.09493 7.46667 12.8V18.1333C7.46667 22.8384 11.2949 26.6667 16 26.6667C20.7051 26.6667 24.5333 22.8384 24.5333 18.1333V12.8C24.5333 8.09493 20.7051 4.26667 16 4.26667Z" fill="white"/>
</svg>
