<svg width="32" height="32" viewBox="0 0 32 32" fill="none" xmlns="http://www.w3.org/2000/svg">
<path d="M17.51 25.63C17.51 23.4612 18.3544 21.4219 19.8881 19.8881C21.4219 18.3544 23.4606 17.51 25.63 17.51C27.4106 17.51 29.1037 18.08 30.5019 19.1325C30.5794 18 30.6275 16.7331 30.6294 15.315C30.6256 11.7481 30.3262 9.13625 30.0069 7.21688C29.4481 4.05438 26.5756 1.18187 23.4131 0.623125C21.4937 0.303125 18.8819 0.00375 15.3144 0C11.7475 0.00375 9.135 0.303125 7.21562 0.6225C4.05375 1.18125 1.18125 4.05375 0.6225 7.21625C0.303125 9.13562 0.004375 11.7475 0 15.3144C0.004375 18.8812 0.303125 21.4937 0.6225 23.4131C1.18125 26.5756 4.05375 29.4481 7.21625 30.0069C9.13562 30.3262 11.7475 30.625 15.315 30.6294C16.7331 30.6275 18 30.5794 19.1325 30.5019C18.08 29.1037 17.51 27.4112 17.51 25.63ZM7.7475 7.40125H22.8819C23.8606 7.40125 24.6544 8.195 24.6544 9.17375C24.6544 10.1525 23.8606 10.9462 22.8819 10.9462H7.7475C6.76875 10.9462 5.975 10.1525 5.975 9.17375C5.975 8.195 6.76875 7.40125 7.7475 7.40125ZM7.7475 18.3481C6.76875 18.3481 5.975 17.5544 5.975 16.5756C5.975 15.5969 6.76875 14.8031 7.7475 14.8031H16.6319C17.6106 14.8031 18.4044 15.5969 18.4044 16.5756C18.4044 17.5544 17.6106 18.3481 16.6319 18.3481H7.7475Z" fill="white"/>
<path d="M25.63 19.2598C22.1119 19.2598 19.26 22.1116 19.26 25.6298C19.26 29.1479 22.1119 31.9998 25.63 31.9998C29.1481 31.9998 32 29.1479 32 25.6298C32 22.1116 29.1481 19.2598 25.63 19.2598ZM26.8175 28.7904C26.8175 29.446 26.2856 29.9779 25.63 29.9779C24.9744 29.9779 24.4425 29.446 24.4425 28.7904V25.6573C24.4425 25.0016 24.9744 24.4698 25.63 24.4698C26.2856 24.4698 26.8175 25.0016 26.8175 25.6573V28.7904ZM26.7688 23.1154C26.725 23.3629 26.5 23.5879 26.2525 23.6316C26.1025 23.6566 25.8975 23.6798 25.6181 23.6804C25.3388 23.6804 25.1344 23.6566 24.9838 23.6316C24.7363 23.5879 24.5113 23.3629 24.4675 23.1154C24.4425 22.9654 24.4194 22.7604 24.4188 22.481C24.4188 22.2016 24.4425 21.9973 24.4675 21.8466C24.5113 21.5991 24.7363 21.3741 24.9838 21.3304C25.1338 21.3054 25.3388 21.2823 25.6181 21.2816C25.8975 21.2816 26.1019 21.3054 26.2525 21.3304C26.5 21.3741 26.725 21.5991 26.7688 21.8466C26.7938 21.9966 26.8169 22.2016 26.8175 22.481C26.8175 22.7604 26.7938 22.9648 26.7688 23.1154Z" fill="white"/>
</svg>
